<?xml version="1.0" encoding="utf-8"?>
<!-- Generator: Adobe Illustrator 19.0.0, SVG Export Plug-In . SVG Version: 6.00 Build 0)  -->
<svg version="1.1" id="Layer_1" xmlns="http://www.w3.org/2000/svg" xmlns:xlink="http://www.w3.org/1999/xlink" x="0px" y="0px"
	 viewBox="0 0 734.4 442.6" style="enable-background:new 0 0 734.4 442.6;" xml:space="preserve">
<style type="text/css">
	.st0{fill:#B22222;}
	.st1{fill:none;stroke:#000000;stroke-width:0.55;stroke-miterlimit:10;}
</style>
<polygon id="XMLID_40_" class="st0" points="509.6,32.2 394.5,48.8 -0.1,105.3 -0.2,105.3 -0.1,0 "/>
<path id="XMLID_39_" class="st0" d="M485.4,396.2L0.3,413.3l0.2-107h0.4l393.8,73c0.2,0,0.4,0.1,0.6,0.1L485.4,396.2z"/>
<path id="XMLID_38_" class="st0" d="M-0.3,94.6l481.7-62.2c-176.1,22.7-203.3,329.5,0,364.2L-0.3,316.2h-0.5l0.4-221.5H-0.3z"/>
<polygon id="XMLID_29_" class="st1" points="-0.2,0 509.5,32.2 509.5,32.2 734.4,0 734.4,442.3 554.7,408.3 489.5,396 485.2,396.2 
	-0.8,413.3 -0.7,306.2 -0.4,105.1 "/>
</svg>
