<?xml version="1.0" encoding="utf-8"?>
<!-- Generator: Adobe Illustrator 19.0.0, SVG Export Plug-In . SVG Version: 6.00 Build 0)  -->
<svg version="1.1" id="Cloud" xmlns="http://www.w3.org/2000/svg" xmlns:xlink="http://www.w3.org/1999/xlink" x="0px" y="0px"
	 viewBox="799.5 134.1 195.7 154.9" style="enable-background:new 799.5 134.1 195.7 154.9;" xml:space="preserve">
<style type="text/css">
	.st0{fill:#EE7BFF;}
	.st1{fill:none;stroke:#CBC5C6;stroke-width:6;stroke-miterlimit:10;}
	.st2{fill:#FFFFFF;}
	.st3{fill:#838996;}
	.st4{fill:#1F262A;}
	.st5{fill:#FF0000;}
	.st6{fill:#CBC5C6;}
	.st7{fill:#8900AA;}
	.st8{fill:#600068;}
</style>
<path id="XMLID_316_" class="st0" d="M964.8,228.3h-0.5c-18.6,0-31.9,5-39.9,12.1l-0.1,0.1c-5.1-4.8-12.6-8-22.3-8.4
	c-0.1-16.5-15.3-25.3-31.5-26.5C891.4,166.5,964.3,174.1,964.8,228.3z"/>
<g id="Dude">
	<g id="XMLID_292_">
		<line id="XMLID_278_" class="st1" x1="928" y1="202" x2="928" y2="211"/>
		<rect id="XMLID_280_" x="915.9" y="210.1" class="st2" width="25.3" height="39.5"/>
		<line id="XMLID_276_" class="st1" x1="911" y1="162" x2="911" y2="139"/>
		<circle id="XMLID_268_" class="st3" cx="928.2" cy="178.2" r="26.2"/>
		<circle id="XMLID_273_" class="st4" cx="928.2" cy="178.2" r="21.1"/>
		<circle id="XMLID_275_" class="st5" cx="928.2" cy="178.2" r="10.8"/>
		<circle id="XMLID_277_" class="st6" cx="910.7" cy="139.2" r="5.1"/>
		<polygon id="XMLID_279_" points="933.9,210.1 928.4,205.1 923,210.1 928.4,215 		"/>
		<path id="XMLID_287_" d="M924.4,252.7l0.2,15.3h26.7l-0.1-0.3l-3.7-15.1l7.3-32c-0.7-8-6.1-10.9-14.6-10.6
			C939.9,229.4,932.9,247.2,924.4,252.7z"/>
		<path id="XMLID_284_" d="M932.6,252.7l-0.2,15.3H906l0.1-0.3l3.6-15.1l-7.2-32c0.7-8,6-10.9,14.5-10.6
			C917.3,229.4,924.2,247.2,932.6,252.7z"/>
		
			<rect id="XMLID_283_" x="927" y="239.2" transform="matrix(-0.7071 -0.7071 0.7071 -0.7071 1414.8239 1067.5605)" width="3" height="3.1"/>
		<g id="XMLID_265_">
			<path id="XMLID_266_" d="M929.4,211.2c0,0,0.1,0.5,0.3,1.3c0.1,0.4,0.2,0.9,0.3,1.5c0.1,0.6,0.3,1.2,0.4,1.9
				c0.6,2.8,1.1,6.5,1.5,10.2c0.2,1.9,0.4,3.7,0.5,5.4c0.1,0.9,0.1,1.7,0.2,2.5c0,0.8,0.1,1.5,0.1,2.2c0,1.4-0.5,2.5-1,3.4
				c-0.1,0.2-0.3,0.4-0.4,0.5c-0.1,0.2-0.2,0.3-0.3,0.4c-0.2,0.2-0.3,0.3-0.3,0.3h-4.4c0,0-0.1-0.1-0.3-0.3
				c-0.1-0.1-0.2-0.2-0.3-0.4s-0.2-0.3-0.4-0.5c-0.5-0.8-1-2-1-3.4c0-0.7,0.1-1.4,0.1-2.2s0.1-1.6,0.1-2.5c0.1-1.7,0.3-3.6,0.5-5.4
				c0.4-3.7,0.9-7.4,1.5-10.2c0.1-0.7,0.3-1.3,0.4-1.9c0.1-0.6,0.2-1.1,0.3-1.5c0.2-0.8,0.3-1.3,0.3-1.3H929.4z"/>
		</g>
		<circle id="XMLID_281_" class="st2" cx="923.4" cy="182.6" r="3.1"/>
		<circle id="XMLID_285_" class="st2" cx="928.9" cy="186.1" r="1.5"/>
	</g>
</g>
<path id="XMLID_317_" class="st7" d="M964.8,229c41.2,1.7,40.6,60-1.8,60v1c-23.5,0-44.5,0-63-0.1V289c33.3,0,41.4-32.6,24.3-48.5
	l0.1-0.1c8-7.1,21.2-12.1,39.9-12.1h0.5C964.8,228.5,964.8,228.7,964.8,229L964.8,229z"/>
<path id="XMLID_315_" class="st8" d="M902,232c9.7,0.4,17.1,3.7,22.3,8.4c17.1,15.9,9,48.5-24.3,48.5v0.9
	c-28.9-0.1-51.8-0.3-68.7-0.5c-42.4-5.6-42.4-52.4,0.2-57.9c0-0.3,0-0.6,0-0.9c1.2-18.1,20.8-26.4,39.1-25.1
	C886.8,206.7,901.9,215.6,902,232z"/>
</svg>
